<?xml version="1.0" standalone="no"?>
<!DOCTYPE svg PUBLIC "-//W3C//DTD SVG 20010904//EN"
 "http://www.w3.org/TR/2001/REC-SVG-20010904/DTD/svg10.dtd">
<svg version="1.0" xmlns="http://www.w3.org/2000/svg"
 width="256.000000pt" height="256.000000pt" viewBox="0 0 256.000000 256.000000"
 preserveAspectRatio="xMidYMid meet">
<metadata>
Created by potrace 1.14, written by Peter Selinger 2001-2017
</metadata>
<g transform="translate(0.000000,256.000000) scale(0.100000,-0.100000)"
fill="#000000" stroke="none">
<path d="M0 1280 l0 -1280 1280 0 1280 0 0 1280 0 1280 -1280 0 -1280 0 0
-1280z m1720 850 c0 -5 -13 -35 -29 -67 -34 -67 -140 -294 -252 -542 -127
-279 -138 -287 -339 -276 -74 4 -198 14 -275 22 -77 8 -165 16 -195 18 -30 2
-102 9 -160 14 -58 6 -120 10 -138 11 -61 0 -39 19 128 115 25 14 59 33 75 43
17 10 64 37 105 60 41 24 82 47 90 52 8 5 51 30 95 55 44 26 87 50 95 55 104
62 129 76 155 90 17 9 71 40 120 69 50 29 135 78 190 109 55 31 102 59 105 63
3 3 34 21 70 39 36 18 67 36 70 40 7 10 62 38 78 39 6 1 12 -3 12 -9z m111
-107 c18 -32 40 -70 49 -84 8 -14 34 -59 58 -100 23 -41 47 -81 52 -89 4 -8
30 -53 57 -100 26 -46 53 -92 58 -102 44 -74 106 -190 103 -192 -3 -4 -272 19
-343 28 -22 3 -105 10 -184 16 -80 6 -155 13 -168 16 -29 8 -27 15 32 133 24
47 49 103 56 124 7 20 16 37 20 37 4 0 10 11 13 25 3 13 27 69 52 122 26 54
60 126 76 161 16 34 31 62 33 62 2 0 18 -26 36 -57z m-171 -703 c63 -5 153
-12 200 -16 47 -3 102 -10 124 -16 21 -5 52 -8 70 -7 17 1 55 -2 85 -6 43 -6
50 -10 35 -18 -22 -11 -161 -92 -282 -163 -95 -56 -113 -66 -326 -189 -86 -49
-176 -101 -201 -115 -206 -116 -288 -163 -372 -217 -28 -18 -54 -33 -57 -33
-3 0 -28 -14 -56 -31 -28 -17 -53 -29 -56 -26 -3 3 6 27 21 53 14 27 46 94 71
149 170 371 207 451 216 463 7 7 35 12 74 12 40 0 64 4 64 11 0 6 6 9 14 6 8
-3 20 1 26 9 7 8 18 14 24 14 6 0 34 30 61 65 50 64 50 65 100 65 28 0 102 -5
165 -10z m-1185 -105 c89 -6 227 -19 315 -30 25 -4 93 -9 152 -12 l108 -6 -20
-27 c-11 -16 -20 -34 -20 -40 0 -11 -20 -56 -106 -235 -64 -135 -134 -288
-145 -320 -7 -19 -18 -35 -24 -35 -6 0 -51 71 -100 158 -49 86 -92 159 -95
162 -3 3 -13 21 -23 40 -9 19 -27 51 -39 70 -31 51 -122 209 -147 253 l-22 39
38 -6 c21 -3 79 -8 128 -11z"/>
</g>
</svg>
